<svg width="1200" height="800" viewBox="0 0 1200 800" fill="none" xmlns="http://www.w3.org/2000/svg">
  <rect width="1200" height="800" fill="#0B0B0B"/>
  <rect x="80" y="60" width="520" height="680" rx="8" fill="#141414" stroke="#222222" stroke-width="1"/>
  <rect x="120" y="100" width="200" height="28" rx="4" fill="#222222"/>
  <rect x="120" y="148" width="440" height="14" rx="2" fill="#1e1e1e"/>
  <rect x="120" y="172" width="380" height="14" rx="2" fill="#1e1e1e"/>
  <rect x="120" y="210" width="440" height="44" rx="6" fill="#1a1a1a" stroke="#222222" stroke-width="1"/>
  <rect x="120" y="268" width="440" height="44" rx="6" fill="#1a1a1a" stroke="#222222" stroke-width="1"/>
  <rect x="120" y="326" width="440" height="44" rx="6" fill="#1a1a1a" stroke="#222222" stroke-width="1"/>
  <rect x="120" y="384" width="440" height="100" rx="6" fill="#1a1a1a" stroke="#222222" stroke-width="1"/>
  <rect x="120" y="504" width="180" height="44" rx="6" fill="#8FD400"/>
  <rect x="640" y="60" width="480" height="680" rx="8" fill="#141414" stroke="#222222" stroke-width="1"/>
  <rect x="680" y="100" width="200" height="20" rx="4" fill="#222222"/>
  <path d="M680 160 L1080 160 L1080 360 L680 360 Z" fill="#1a1a1a" stroke="#222222" stroke-width="1" rx="4"/>
  <line x1="680" y1="160" x2="1080" y2="360" stroke="#222222" stroke-width="1"/>
  <line x1="680" y1="220" x2="780" y2="220" stroke="#8FD400" stroke-width="2"/>
  <line x1="780" y1="220" x2="880" y2="180" stroke="#8FD400" stroke-width="2"/>
  <line x1="880" y1="180" x2="980" y2="240" stroke="#8FD400" stroke-width="2"/>
  <line x1="980" y1="240" x2="1080" y2="200" stroke="#8FD400" stroke-width="2"/>
  <rect x="680" y="400" width="160" height="80" rx="6" fill="#1a1a1a" stroke="#222222" stroke-width="1"/>
  <rect x="860" y="400" width="160" height="80" rx="6" fill="#1a1a1a" stroke="#222222" stroke-width="1"/>
  <rect x="680" y="500" width="160" height="80" rx="6" fill="#1a1a1a" stroke="#222222" stroke-width="1"/>
  <rect x="860" y="500" width="160" height="80" rx="6" fill="#1a1a1a" stroke="#222222" stroke-width="1"/>
  <rect x="680" y="620" width="400" height="60" rx="6" fill="#1a1a1a" stroke="#222222" stroke-width="1"/>
</svg>
